<?xml version="1.0" encoding="utf-8"?>
<!-- Generator: Adobe Illustrator 27.9.0, SVG Export Plug-In . SVG Version: 6.00 Build 0)  -->
<svg version="1.1" id="Layer_2_00000072972778661620055240000007501528103176289451_"
	xmlns="http://www.w3.org/2000/svg" xmlns:xlink="http://www.w3.org/1999/xlink" x="0px" y="0px" viewBox="0 0 191.2 174"
	style="enable-background:new 0 0 191.2 174;" xml:space="preserve">
<style type="text/css">
	.st0{fill:#8f00ff;}
</style>
<g>
	<path fill="white" d="M148.9,92.2c0,17.5,0,35,0,52.5c0,5.3-0.8,6.1-6,5.9c-15.8-0.4-29,6.3-41.2,15.4c-2.3,1.7-4.3,3.6-6.4,5.6
		c-3.3,3.1-4.2,3.2-7.3,0c-6.9-7.1-14.8-12.8-23.7-17.1c-13.2-6.3-27-8.4-41.4-5.6c-4,0.8-8.1,1.6-12.1,2.3c-1,0.2-2.2,0.9-2.8-0.3
		c-0.7-1.3,0.5-2.1,1.3-2.9c8.1-7.1,17.6-11.5,28-14.1c4.5-1.1,9.1-1.7,13.8-1.7c3.4,0,5-1.4,5-5.2c-0.1-27.5-0.1-55.1,0-82.6
		c0-3.7-1.1-4.1-4.5-3.7c-9,1.1-18.1,1-27.1,0.3C14.7,40.3,5.7,30.7,4.9,20.8C4.4,14.5,3.8,8.2,6.4,2.1C6.9,1,7.4-0.1,8.8,0
		c1.3,0.1,1.5,1.2,1.9,2.1C14,10.7,21,14.3,29.4,14.9c13.5,1,27-0.6,40.5-2.5c14.4-2,29.1-2.9,43.6-1.8c7,0.6,14,2,20.5,5.2
		c9.9,4.8,14.5,13.1,14.8,23.5C149.1,57,148.8,74.6,148.9,92.2L148.9,92.2L148.9,92.2z M121.6,130.6c0-5.1,0-10.3,0-15.4
		c0-2.3-0.4-4.4-2.7-5.6c-17.8-9.8-35.7-10.3-53.9-0.8c-3.6,1.9-5,4.3-4.7,8.2c0.3,3.6,0.2,7.2,0,10.8c-0.2,3.2,0.9,4.8,4.4,4.7
		c4.3-0.2,8.4,1.2,12.5,2.2c12.1,3.1,23.3,8.3,32.8,16.5c3.2,2.7,5.8,0.2,8.6-0.8c2.3-0.8,3-2.5,3-4.8
		C121.6,140.7,121.6,135.6,121.6,130.6L121.6,130.6z M60.4,53.7c0,3.6,0,7.2,0,10.8c0,2.2,0.9,3.5,2.8,4.6
		c18.6,10.2,37.1,10.3,55.7,0c1.5-0.8,2.6-1.8,2.6-3.5c0-7.5,0-14.9-0.2-22.4c-0.1-2.8-1.8-4.4-4.5-5.1c-4-1-8-1.6-12.2-1.6
		c-13.8,0-27.5,1.6-41.2,3.1c-2.1,0.2-3,1.3-2.9,3.2C60.5,46.5,60.5,50.1,60.4,53.7L60.4,53.7z M60.4,89.1c0,4,0,8,0,12
		c0,4.2,0.3,4.3,4.1,2.6c7.2-3.4,14.6-5.9,22.5-6.6c10.8-1,20.9,1.9,30.6,6.5c3.6,1.8,4,1.6,4.1-2.6c0-7.7-0.1-15.4,0.1-23.1
		c0.1-3.2-0.8-3.9-3.8-2.4c-6.1,3.1-12.6,5.3-19.5,6c-12.2,1.1-23.9-0.6-34.7-6.8c-2.7-1.5-3.4-0.4-3.3,2.2
		C60.5,80.8,60.4,85,60.4,89.1L60.4,89.1z"/>
	<path fill="white" d="M0.1,97.7c0-12.3,5.6-21,18.6-22.5c1.8-0.2,3-0.8,3-2.8c-0.4-13.5,9-19.6,19.2-25c1.9-1,4-1.7,6.1-2.5
		c0.9-0.3,1.8-0.4,2.5,0.3c0.8,0.8,0.4,1.7-0.1,2.5c-3.8,6.5-4.1,13.8-4.3,20.9c-0.4,11.9-0.6,23.9,0,35.9
		c0.7,13.8-5.7,22.7-17.2,28.9c-2.5,1.3-5.1,2.5-7.7,3.6c-0.9,0.4-2,0.9-2.9,0.1c-0.9-0.9-0.3-2,0.1-2.9c4.2-10.8,4.4-22,4.5-33.4
		c0-3.4-1.5-4.4-4.6-3.7c-5.4,1.1-10.2,3-12.4,8.7c-0.3,0.8-0.6,1.9-1.7,1.9c-1.3,0-1.4-1.3-1.7-2.3C0.4,102.7-0.2,100,0.1,97.7
		L0.1,97.7z"/>
</g>
<circle class="st0" cx="180.2" cy="141.5" r="10.9"/>
</svg>
